<?xml version="1.0" encoding="utf-8"?>
<!-- Svg Vector Icons : http://www.onlinewebfonts.com/icon -->
<!DOCTYPE svg PUBLIC "-//W3C//DTD SVG 1.1//EN" "http://www.w3.org/Graphics/SVG/1.1/DTD/svg11.dtd">
<svg version="1.1" xmlns="http://www.w3.org/2000/svg" xmlns:xlink="http://www.w3.org/1999/xlink" x="0px" y="0px" viewBox="0 0 256 256" enable-background="new 0 0 256 256" xml:space="preserve">
<metadata> Svg Vector Icons : http://www.onlinewebfonts.com/icon </metadata>
<g><g><path fill="#000000" d="M213.1,70.3c1.6-3.7,4.2-6.2,7.9-7.6c3.7-1.4,7.3-2.3,11-2.6c4.3-0.5,9-0.4,14.1,0.2c-9.1,22.9-17.2,43.4-24.3,61.6c-3,7.8-6,15.4-8.9,22.9c-2.9,7.5-5.6,14.2-8,20.2c-2.4,6-4.3,10.8-5.9,14.5c-1.5,3.7-2.3,5.8-2.5,6.1c-0.5,1.4-1.3,3-2.5,4.6c-1.2,1.7-2.7,3.2-4.5,4.6c-1.8,1.4-4,2.6-6.5,3.7c-2.5,1-5.3,1.5-8.5,1.5c-3,0-5.7-0.6-8.1-1.7c-2.4-1.1-4.4-2.5-6.1-4c-1.7-1.6-3-3.2-4-4.9c-1-1.7-1.7-3.1-2-4.2c-0.3-0.6-1.4-3.6-3.2-8.9s-4-11.6-6.6-18.7c-2.6-7.2-5.1-14.6-7.8-22.3c-2.6-7.7-4.9-14.4-6.8-19.9c-3.2,8.3-6.4,16.5-9.5,24.7c-3.2,8.2-6.1,15.6-8.7,22.2c-2.6,6.6-4.8,12-6.4,16.2c-1.7,4.2-2.6,6.6-2.7,7c-0.5,1.4-1.3,3-2.4,4.6c-1.1,1.7-2.5,3.2-4.2,4.6c-1.7,1.4-3.7,2.7-6,3.7c-2.3,1-5.1,1.5-8.2,1.5s-6-0.6-8.4-1.7c-2.4-1.1-4.4-2.5-6.1-4c-1.7-1.6-3-3.2-3.9-4.9c-1-1.7-1.7-3.1-2.1-4.2c-0.2-0.5-0.7-2-1.5-4.5c-0.9-2.6-2-5.8-3.3-9.8c-1.3-4-2.9-8.4-4.5-13.1c-1.7-4.8-3.4-9.7-5.1-14.8c-4.1-11.8-8.7-25-13.6-39.6c-1.8-4.8-3.3-8.4-4.6-11s-2.8-4.3-4.4-5.3s-3.4-1.3-5.5-1s-4.7,1-7.9,1.9c-1.4-7.6-0.1-14.2,4-19.8c4.1-5.6,9.9-9.3,17.4-11.2c7.5-2.1,13.7-1.8,18.7,1c5,2.7,8.6,7.2,10.9,13.4c0.6,1.9,1.9,5.6,3.7,11c1.8,5.4,4,11.8,6.7,19.2c2.6,7.4,5.4,15.3,8.4,23.9c2.9,8.5,5.8,16.8,8.5,24.9L119.6,72c1.8-4.3,4.3-7.3,7.8-9.2c3.4-1.8,7-2.6,10.6-2.4c3.7,0.2,7,1.3,10.1,3.2c3.1,1.9,5.3,4.5,6.5,7.9c0.6,1.9,1.9,5.6,3.7,11s4,11.8,6.5,19.2c2.6,7.4,5.3,15.3,8.1,23.9c2.9,8.5,5.7,16.8,8.6,24.9L213.1,70.3z"/></g></g>
</svg>